# xmcd
#
# Track frame offsets:
#	150
#	11003
#	23287
#	31718
#	44370
#	55879
#	66042
#	78645
#	89303
#	96979
#	109760
#	124271
#
# Disc length: 1832
#
# Revision: 2
# Processed by: cddbd v1.5.1PL0 Copyright (c) Steve Scherf et al.
# Submitted via: CDex 1.50
# Normalized: r0:TDELIM( - ),TSWAP
#
DISCID=8f07260c
DTITLE=Varis - Gigantes del Country 2/2
DYEAR=2001
DGENRE=Country
TTITLE0=Johnny Cash - Cry, Cry, Ddy
TTITLE1=Kenny Rogers - Reuben James
TTITLE2=Freddy Quinn - Oh, Susanne
TTITLE3=Dave Dudley - Me and Old C.B.
TTITLE4=Don Gibson - Sea of Heartbreak
TTITLE5=Loretta Lynn - You're Looking At Country
TTITLE6=Bob Bare - Rosalie
TTITLE7=Johnnny Cash - Train of Love
TTITLE8=Roger Miller - Do Waka Doo
TTITLE9=Faron Young - I'm a Free Man Now
TTITLE10=Andy Forstmann - My Tenessee Home
TTITLE11=Freddy Wellor - Games People Play
EXTD=YEAR: 2001
EXTT0=
EXTT1=
EXTT2=
EXTT3=
EXTT4=
EXTT5=
EXTT6=
EXTT7=
EXTT8=
EXTT9=
EXTT10=
EXTT11=
PLAYORDER=
